<svg xmlns="http://www.w3.org/2000/svg" version="1.1" xmlns:xlink="http://www.w3.org/1999/xlink" xmlns:svgjs="http://svgjs.dev/svgjs" width="1000" height="1000" viewBox="0 0 1000 1000"><rect width="1000" height="1000" fill="#ffffff"></rect><g transform="matrix(0.7,0,0,0.7,149.57575757575756,282.1265587044535)"><svg viewBox="0 0 396 247" data-background-color="#ffffff" preserveAspectRatio="xMidYMid meet" height="623" width="1000" xmlns="http://www.w3.org/2000/svg" xmlns:xlink="http://www.w3.org/1999/xlink"><g id="tight-bounds" transform="matrix(1,0,0,1,0.2400000000000091,-0.09999999999999432)"><svg viewBox="0 0 395.52 247.2" height="247.2" width="395.52"><g><svg></svg></g><g><svg viewBox="0 0 395.52 247.2" height="247.2" width="395.52"><g transform="matrix(1,0,0,1,118.65599999999999,110.97739847601972)"><svg viewBox="0 0 158.208 25.245203047960555" height="25.245203047960555" width="158.208"><g><svg viewBox="0 0 158.208 25.245203047960555" height="25.245203047960555" width="158.208"><g><svg viewBox="0 0 158.208 25.245203047960555" height="25.245203047960555" width="158.208"><g><svg viewBox="0 0 158.208 25.245203047960555" height="25.245203047960555" width="158.208"><g><svg viewBox="0 0 158.208 25.245203047960555" height="25.245203047960555" width="158.208"><g transform="matrix(1,0,0,1,0,0)"><svg width="158.208" viewBox="0.5 -35 223.08999633789062 35.599998474121094" height="25.245203047960555" data-palette-color="#6936f5"><g class="undefined-text-0" data-fill-palette-color="primary" id="text-0"><path d="M38.45 0L26.75 0 25.3-4.85 13.25-4.85 11.8 0 0.5 0 13.05-34.4 25.9-34.4 38.45 0ZM19.2-24.8L15.55-12.55 23-12.55 19.4-24.8 19.2-24.8ZM61.9-34.4Q65.1-34.4 67.6-32.93 70.1-31.45 71.5-28.88 72.9-26.3 72.9-23.1L72.9-23.1 72.9-22.45Q72.9-19.25 71.5-16.65 70.1-14.05 67.6-12.58 65.1-11.1 61.9-11.1L61.9-11.1 53.65-11.1 53.65 0 42.6 0 42.6-34.4 61.9-34.4ZM53.65-26.25L53.65-19.15 58.2-19.15Q59.95-19.15 60.82-20.05 61.7-20.95 61.7-22.5L61.7-22.5 61.7-22.9Q61.7-24.5 60.82-25.38 59.95-26.25 58.2-26.25L58.2-26.25 53.65-26.25ZM98-34.4Q101.2-34.4 103.7-32.93 106.2-31.45 107.59-28.88 109-26.3 109-23.1L109-23.1 109-22.45Q109-19.25 107.59-16.65 106.2-14.05 103.7-12.58 101.2-11.1 98-11.1L98-11.1 89.75-11.1 89.75 0 78.7 0 78.7-34.4 98-34.4ZM89.75-26.25L89.75-19.15 94.3-19.15Q96.05-19.15 96.92-20.05 97.8-20.95 97.8-22.5L97.8-22.5 97.8-22.9Q97.8-24.5 96.92-25.38 96.05-26.25 94.3-26.25L94.3-26.25 89.75-26.25ZM132.09-35Q137.04-35 140.99-33.5 144.94-32 147.27-29.08 149.59-26.15 149.59-21.95L149.59-21.95 139.04-21.95Q139.04-24.1 137.14-25.43 135.24-26.75 132.54-26.75L132.54-26.75Q128.64-26.75 126.64-24.68 124.64-22.6 124.64-18.8L124.64-18.8 124.64-15.6Q124.64-11.8 126.64-9.73 128.64-7.65 132.54-7.65L132.54-7.65Q135.24-7.65 137.14-8.93 139.04-10.2 139.04-12.2L139.04-12.2 131.24-12.2 131.24-19.2 149.59-19.2 149.59 0 143.89 0 142.79-3.4Q138.09 0.6 130.49 0.6L130.49 0.6Q121.94 0.6 117.64-3.88 113.34-8.35 113.34-17.2L113.34-17.2Q113.34-25.95 118.22-30.48 123.09-35 132.09-35L132.09-35ZM156.44 0L156.44-34.4 186.19-34.4 186.19-26.15 167.49-26.15 167.49-21.4 183.49-21.4 183.49-13.5 167.49-13.5 167.49-8.25 186.54-8.25 186.54 0 156.44 0ZM223.59-25.6L212.34-25.6 212.34 0 201.29 0 201.29-25.6 189.99-25.6 189.99-34.4 223.59-34.4 223.59-25.6Z" fill="#6936f5" data-fill-palette-color="primary"></path></g></svg></g></svg></g></svg></g></svg></g><g></g></svg></g></svg></g><g mask="url(#dd0a54e4-4abd-47d0-bc47-9b72f046692b)"><g transform="matrix(7.1103377021949905, 0, 0, 7.1103377021949905, 45.82987054033856, 1.0000000000000142)"><svg xmlns="http://www.w3.org/2000/svg" xmlns:xlink="http://www.w3.org/1999/xlink" version="1.1" x="0" y="0" viewBox="27.993000030517578 33.02300262451172 42.7349967956543 34.48500061035156" enable-background="new 0 0 100 100" xml:space="preserve" height="34.48500061035156" width="42.7349967956543" class="icon-none" data-fill-palette-color="accent" id="none"><path d="M27.993 35.58l7.305 7.303-7.305 7.306 2.557 2.557 9.863-9.862-9.863-9.861L27.993 35.58zM42.148 47.975v3.617h28.58v-3.617H42.148zM42.148 59.55h28.58v-3.617h-28.58V59.55zM42.148 67.508h14.29v-3.617h-14.29V67.508z" fill="#6936f5" data-fill-palette-color="accent"></path></svg></g></g></svg></g><defs><mask id="dd0a54e4-4abd-47d0-bc47-9b72f046692b"><rect width="640" height="400" fill="white"></rect><rect width="174.02880000000002" height="37.164776157461226" fill="black" x="232.98559999999998" y="181.41761192126938" id="transform-me" transform="matrix(1,0,0,1,-122.24000000000001,-76.4)"></rect></mask></defs></svg><rect width="395.52" height="247.2" fill="none" stroke="none" visibility="hidden"></rect></g></svg></g></svg>